<?xml version="1.0" encoding="utf-8" standalone="no"?>
<!DOCTYPE svg PUBLIC "-//W3C//DTD SVG 1.1//EN"
  "http://www.w3.org/Graphics/SVG/1.1/DTD/svg11.dtd">
<svg xmlns:xlink="http://www.w3.org/1999/xlink" width="856.8pt" height="568.637812pt" viewBox="0 0 856.8 568.637812" xmlns="http://www.w3.org/2000/svg" version="1.1">
 <metadata>
  <rdf:RDF xmlns:dc="http://purl.org/dc/elements/1.1/" xmlns:cc="http://creativecommons.org/ns#" xmlns:rdf="http://www.w3.org/1999/02/22-rdf-syntax-ns#">
   <cc:Work>
    <dc:type rdf:resource="http://purl.org/dc/dcmitype/StillImage"/>
    <dc:date>2026-01-03T03:51:18.972592</dc:date>
    <dc:format>image/svg+xml</dc:format>
    <dc:creator>
     <cc:Agent>
      <dc:title>Matplotlib v3.10.8, https://matplotlib.org/</dc:title>
     </cc:Agent>
    </dc:creator>
   </cc:Work>
  </rdf:RDF>
 </metadata>
 <defs>
  <style type="text/css">*{stroke-linejoin: round; stroke-linecap: butt}</style>
 </defs>
 <g id="figure_1">
  <g id="patch_1">
   <path d="M 0 568.637812 
L 856.8 568.637812 
L 856.8 0 
L 0 0 
z
" style="fill: #ffffff"/>
  </g>
  <g id="axes_1">
   <g id="patch_2">
    <path d="M 88.961344 514.786573 
Q 428.401412 514.786573 766.723446 514.786573 
" clip-path="url(#p4d492bade7)" style="fill: none; stroke: #666666; stroke-linecap: round"/>
    <path d="M 762.723446 512.786573 
L 766.723446 514.786573 
L 762.723446 516.786573 
z
" clip-path="url(#p4d492bade7)" style="fill: #666666; stroke: #666666; stroke-linecap: round"/>
   </g>
   <g id="patch_3">
    <path d="M 116.618458 458.131528 
Q 143.59052 416.055452 169.959214 374.920624 
" clip-path="url(#p4d492bade7)" style="fill: none; stroke: #666666; stroke-linecap: round"/>
    <path d="M 166.116783 377.208794 
L 169.959214 374.920624 
L 169.484291 379.367471 
z
" clip-path="url(#p4d492bade7)" style="fill: #666666; stroke: #666666; stroke-linecap: round"/>
   </g>
   <g id="patch_4">
    <path d="M 179.909216 373.976053 
Q 191.058845 391.369332 201.605104 407.821363 
" clip-path="url(#p4d492bade7)" style="fill: none; stroke: #666666; stroke-linecap: round"/>
    <path d="M 201.130182 403.374516 
L 201.605104 407.821363 
L 197.762673 405.533193 
z
" clip-path="url(#p4d492bade7)" style="fill: #666666; stroke: #666666; stroke-linecap: round"/>
   </g>
   <g id="patch_5">
    <path d="M 215.413211 417.532462 
Q 491.690429 465.420124 766.866038 513.116843 
" clip-path="url(#p4d492bade7)" style="fill: none; stroke: #666666; stroke-linecap: round"/>
    <path d="M 763.266376 510.463085 
L 766.866038 513.116843 
L 762.583235 514.404318 
z
" clip-path="url(#p4d492bade7)" style="fill: #666666; stroke: #666666; stroke-linecap: round"/>
   </g>
   <g id="patch_6">
    <path d="M 771.826922 507.497919 
Q 713.209615 416.055663 655.195676 325.554653 
" clip-path="url(#p4d492bade7)" style="fill: none; stroke: #666666; stroke-linecap: round"/>
    <path d="M 655.670599 330.0015 
L 655.195676 325.554653 
L 659.038107 327.842823 
z
" clip-path="url(#p4d492bade7)" style="fill: #666666; stroke: #666666; stroke-linecap: round"/>
   </g>
   <g id="patch_7">
    <path d="M 243.20239 359.394979 
Q 285.996569 292.636602 328.18738 226.819471 
" clip-path="url(#p4d492bade7)" style="fill: none; stroke: #666666; stroke-linecap: round"/>
    <path d="M 324.344948 229.107641 
L 328.18738 226.819471 
L 327.712457 231.266318 
z
" clip-path="url(#p4d492bade7)" style="fill: #666666; stroke: #666666; stroke-linecap: round"/>
   </g>
   <g id="patch_8">
    <path d="M 338.136114 225.876879 
Q 349.285742 243.270158 359.832001 259.722189 
" clip-path="url(#p4d492bade7)" style="fill: none; stroke: #666666; stroke-linecap: round"/>
    <path d="M 359.357079 255.275342 
L 359.832001 259.722189 
L 355.98957 257.434019 
z
" clip-path="url(#p4d492bade7)" style="fill: #666666; stroke: #666666; stroke-linecap: round"/>
   </g>
   <g id="patch_9">
    <path d="M 373.640108 269.433289 
Q 507.510526 292.637306 640.279335 315.650379 
" clip-path="url(#p4d492bade7)" style="fill: none; stroke: #666666; stroke-linecap: round"/>
    <path d="M 636.679672 312.996621 
L 640.279335 315.650379 
L 635.996531 316.937854 
z
" clip-path="url(#p4d492bade7)" style="fill: #666666; stroke: #666666; stroke-linecap: round"/>
   </g>
   <g id="patch_10">
    <path d="M 641.84793 314.17384 
Q 523.334679 267.954048 405.86305 222.140484 
" clip-path="url(#p4d492bade7)" style="fill: none; stroke: #666666; stroke-linecap: round"/>
    <path d="M 408.862987 225.457166 
L 405.86305 222.140484 
L 410.316358 221.730544 
z
" clip-path="url(#p4d492bade7)" style="fill: #666666; stroke: #666666; stroke-linecap: round"/>
   </g>
   <g id="patch_11">
    <path d="M 645.245887 310.033108 
Q 570.805531 193.907094 496.968543 78.722328 
" clip-path="url(#p4d492bade7)" style="fill: none; stroke: #666666; stroke-linecap: round"/>
    <path d="M 497.443465 83.169175 
L 496.968543 78.722328 
L 500.810974 81.010498 
z
" clip-path="url(#p4d492bade7)" style="fill: #666666; stroke: #666666; stroke-linecap: round"/>
   </g>
   <g id="patch_12">
    <path d="M 487.016093 77.781472 
Q 444.221913 144.53985 402.031103 210.35698 
" clip-path="url(#p4d492bade7)" style="fill: none; stroke: #666666; stroke-linecap: round"/>
    <path d="M 405.873534 208.06881 
L 402.031103 210.35698 
L 402.506025 205.910133 
z
" clip-path="url(#p4d492bade7)" style="fill: #666666; stroke: #666666; stroke-linecap: round"/>
   </g>
   <g id="patch_13">
    <path d="M 404.440948 214.591368 
Q 444.224977 193.903841 483.017065 173.732119 
" clip-path="url(#p4d492bade7)" style="fill: none; stroke: #666666; stroke-linecap: round"/>
    <path d="M 478.545492 173.803081 
L 483.017065 173.732119 
L 480.390891 177.351955 
z
" clip-path="url(#p4d492bade7)" style="fill: #666666; stroke: #666666; stroke-linecap: round"/>
   </g>
   <g id="patch_14">
    <path d="M 491.690759 160.559214 
Q 491.690759 144.53757 491.690759 129.63396 
" clip-path="url(#p4d492bade7)" style="fill: none; stroke: #666666; stroke-linecap: round"/>
    <path d="M 489.690759 133.63396 
L 491.690759 129.63396 
L 493.690759 133.63396 
z
" clip-path="url(#p4d492bade7)" style="fill: #666666; stroke: #666666; stroke-linecap: round"/>
   </g>
   <g id="text_1">
    <g id="patch_15">
     <path d="M 509.867481 268.591768 
L 532.814303 277.540956 
Q 534.77078 278.303976 535.5338 276.347499 
L 537.995333 270.035824 
Q 538.758353 268.079347 536.801876 267.316327 
L 513.855054 258.367139 
Q 511.898577 257.60412 511.135558 259.560596 
L 508.674024 265.872272 
Q 507.911005 267.828748 509.867481 268.591768 
z
" clip-path="url(#p4d492bade7)" style="fill: #ffffff; stroke: #ffffff; stroke-linejoin: miter"/>
    </g>
    <g clip-path="url(#p4d492bade7)">
     <!-- default -->
     <g transform="translate(511.159449 265.279005) rotate(-338.694374) scale(0.07 -0.07)">
      <defs>
       <path id="DejaVuSans-64" d="M 2906 2969 
L 2906 4863 
L 3481 4863 
L 3481 0 
L 2906 0 
L 2906 525 
Q 2725 213 2448 61 
Q 2172 -91 1784 -91 
Q 1150 -91 751 415 
Q 353 922 353 1747 
Q 353 2572 751 3078 
Q 1150 3584 1784 3584 
Q 2172 3584 2448 3432 
Q 2725 3281 2906 2969 
z
M 947 1747 
Q 947 1113 1208 752 
Q 1469 391 1925 391 
Q 2381 391 2643 752 
Q 2906 1113 2906 1747 
Q 2906 2381 2643 2742 
Q 2381 3103 1925 3103 
Q 1469 3103 1208 2742 
Q 947 2381 947 1747 
z
" transform="scale(0.015625)"/>
       <path id="DejaVuSans-65" d="M 3597 1894 
L 3597 1613 
L 953 1613 
Q 991 1019 1311 708 
Q 1631 397 2203 397 
Q 2534 397 2845 478 
Q 3156 559 3463 722 
L 3463 178 
Q 3153 47 2828 -22 
Q 2503 -91 2169 -91 
Q 1331 -91 842 396 
Q 353 884 353 1716 
Q 353 2575 817 3079 
Q 1281 3584 2069 3584 
Q 2775 3584 3186 3129 
Q 3597 2675 3597 1894 
z
M 3022 2063 
Q 3016 2534 2758 2815 
Q 2500 3097 2075 3097 
Q 1594 3097 1305 2825 
Q 1016 2553 972 2059 
L 3022 2063 
z
" transform="scale(0.015625)"/>
       <path id="DejaVuSans-66" d="M 2375 4863 
L 2375 4384 
L 1825 4384 
Q 1516 4384 1395 4259 
Q 1275 4134 1275 3809 
L 1275 3500 
L 2222 3500 
L 2222 3053 
L 1275 3053 
L 1275 0 
L 697 0 
L 697 3053 
L 147 3053 
L 147 3500 
L 697 3500 
L 697 3744 
Q 697 4328 969 4595 
Q 1241 4863 1831 4863 
L 2375 4863 
z
" transform="scale(0.015625)"/>
       <path id="DejaVuSans-61" d="M 2194 1759 
Q 1497 1759 1228 1600 
Q 959 1441 959 1056 
Q 959 750 1161 570 
Q 1363 391 1709 391 
Q 2188 391 2477 730 
Q 2766 1069 2766 1631 
L 2766 1759 
L 2194 1759 
z
M 3341 1997 
L 3341 0 
L 2766 0 
L 2766 531 
Q 2569 213 2275 61 
Q 1981 -91 1556 -91 
Q 1019 -91 701 211 
Q 384 513 384 1019 
Q 384 1609 779 1909 
Q 1175 2209 1959 2209 
L 2766 2209 
L 2766 2266 
Q 2766 2663 2505 2880 
Q 2244 3097 1772 3097 
Q 1472 3097 1187 3025 
Q 903 2953 641 2809 
L 641 3341 
Q 956 3463 1253 3523 
Q 1550 3584 1831 3584 
Q 2591 3584 2966 3190 
Q 3341 2797 3341 1997 
z
" transform="scale(0.015625)"/>
       <path id="DejaVuSans-75" d="M 544 1381 
L 544 3500 
L 1119 3500 
L 1119 1403 
Q 1119 906 1312 657 
Q 1506 409 1894 409 
Q 2359 409 2629 706 
Q 2900 1003 2900 1516 
L 2900 3500 
L 3475 3500 
L 3475 0 
L 2900 0 
L 2900 538 
Q 2691 219 2414 64 
Q 2138 -91 1772 -91 
Q 1169 -91 856 284 
Q 544 659 544 1381 
z
M 1991 3584 
L 1991 3584 
z
" transform="scale(0.015625)"/>
       <path id="DejaVuSans-6c" d="M 603 4863 
L 1178 4863 
L 1178 0 
L 603 0 
L 603 4863 
z
" transform="scale(0.015625)"/>
       <path id="DejaVuSans-74" d="M 1172 4494 
L 1172 3500 
L 2356 3500 
L 2356 3053 
L 1172 3053 
L 1172 1153 
Q 1172 725 1289 603 
Q 1406 481 1766 481 
L 2356 481 
L 2356 0 
L 1766 0 
Q 1100 0 847 248 
Q 594 497 594 1153 
L 594 3053 
L 172 3053 
L 172 3500 
L 594 3500 
L 594 4494 
L 1172 4494 
z
" transform="scale(0.015625)"/>
      </defs>
      <use xlink:href="#DejaVuSans-64"/>
      <use xlink:href="#DejaVuSans-65" transform="translate(63.476562 0)"/>
      <use xlink:href="#DejaVuSans-66" transform="translate(125 0)"/>
      <use xlink:href="#DejaVuSans-61" transform="translate(160.205078 0)"/>
      <use xlink:href="#DejaVuSans-75" transform="translate(221.484375 0)"/>
      <use xlink:href="#DejaVuSans-6c" transform="translate(284.863281 0)"/>
      <use xlink:href="#DejaVuSans-74" transform="translate(312.646484 0)"/>
     </g>
    </g>
   </g>
   <g id="text_2">
    <g id="patch_16">
     <path d="M 562.960663 191.837177 
L 569.411059 201.899713 
Q 570.544365 203.667655 572.312307 202.53435 
L 578.015761 198.878259 
Q 579.783703 197.744954 578.650398 195.977012 
L 572.200002 185.914475 
Q 571.066696 184.146533 569.298754 185.279839 
L 563.5953 188.935929 
Q 561.827358 190.069235 562.960663 191.837177 
z
" clip-path="url(#p4d492bade7)" style="fill: #ffffff; stroke: #ffffff; stroke-linejoin: miter"/>
    </g>
    <g clip-path="url(#p4d492bade7)">
     <!-- low -->
     <g transform="translate(565.954194 189.918231) rotate(-302.661124) scale(0.07 -0.07)">
      <defs>
       <path id="DejaVuSans-6f" d="M 1959 3097 
Q 1497 3097 1228 2736 
Q 959 2375 959 1747 
Q 959 1119 1226 758 
Q 1494 397 1959 397 
Q 2419 397 2687 759 
Q 2956 1122 2956 1747 
Q 2956 2369 2687 2733 
Q 2419 3097 1959 3097 
z
M 1959 3584 
Q 2709 3584 3137 3096 
Q 3566 2609 3566 1747 
Q 3566 888 3137 398 
Q 2709 -91 1959 -91 
Q 1206 -91 779 398 
Q 353 888 353 1747 
Q 353 2609 779 3096 
Q 1206 3584 1959 3584 
z
" transform="scale(0.015625)"/>
       <path id="DejaVuSans-77" d="M 269 3500 
L 844 3500 
L 1563 769 
L 2278 3500 
L 2956 3500 
L 3675 769 
L 4391 3500 
L 4966 3500 
L 4050 0 
L 3372 0 
L 2619 2869 
L 1863 0 
L 1184 0 
L 269 3500 
z
" transform="scale(0.015625)"/>
      </defs>
      <use xlink:href="#DejaVuSans-6c"/>
      <use xlink:href="#DejaVuSans-6f" transform="translate(27.783203 0)"/>
      <use xlink:href="#DejaVuSans-77" transform="translate(88.964844 0)"/>
     </g>
    </g>
   </g>
   <g id="PathCollection_1">
    <defs>
     <path id="C0_0_4cdf56a3cc" d="M 0 22.36068 
C 5.930122 22.36068 11.618159 20.004617 15.811388 15.811388 
C 20.004617 11.618159 22.36068 5.930122 22.36068 -0 
C 22.36068 -5.930122 20.004617 -11.618159 15.811388 -15.811388 
C 11.618159 -20.004617 5.930122 -22.36068 0 -22.36068 
C -5.930122 -22.36068 -11.618159 -20.004617 -15.811388 -15.811388 
C -20.004617 -11.618159 -22.36068 -5.930122 -22.36068 0 
C -22.36068 5.930122 -20.004617 11.618159 -15.811388 15.811388 
C -11.618159 20.004617 -5.930122 22.36068 0 22.36068 
z
"/>
    </defs>
    <g clip-path="url(#p4d492bade7)">
     <use xlink:href="#C0_0_4cdf56a3cc" x="80.300826" y="514.786573" style="fill: #f3e5f5; stroke: #f3e5f5"/>
    </g>
    <g clip-path="url(#p4d492bade7)">
     <use xlink:href="#C0_0_4cdf56a3cc" x="111.946206" y="465.420182" style="fill: #e8f5e9; stroke: #e8f5e9"/>
    </g>
    <g clip-path="url(#p4d492bade7)">
     <use xlink:href="#C0_0_4cdf56a3cc" x="175.236965" y="366.687399" style="fill: #e8f5e9; stroke: #e8f5e9"/>
    </g>
    <g clip-path="url(#p4d492bade7)">
     <use xlink:href="#C0_0_4cdf56a3cc" x="206.882344" y="416.05379" style="fill: #e8f5e9; stroke: #e8f5e9"/>
    </g>
    <g clip-path="url(#p4d492bade7)">
     <use xlink:href="#C0_0_4cdf56a3cc" x="776.499174" y="514.786573" style="fill: #f3e5f5; stroke: #f3e5f5"/>
    </g>
    <g clip-path="url(#p4d492bade7)">
     <use xlink:href="#C0_0_4cdf56a3cc" x="238.527724" y="366.687399" style="fill: #e8f5e9; stroke: #e8f5e9"/>
    </g>
    <g clip-path="url(#p4d492bade7)">
     <use xlink:href="#C0_0_4cdf56a3cc" x="333.463862" y="218.588226" style="fill: #e8f5e9; stroke: #e8f5e9"/>
    </g>
    <g clip-path="url(#p4d492bade7)">
     <use xlink:href="#C0_0_4cdf56a3cc" x="365.109241" y="267.954617" style="fill: #e8f5e9; stroke: #e8f5e9"/>
    </g>
    <g clip-path="url(#p4d492bade7)">
     <use xlink:href="#C0_0_4cdf56a3cc" x="649.917656" y="317.321008" style="fill: #fff3e0; stroke: #fff3e0"/>
    </g>
    <g clip-path="url(#p4d492bade7)">
     <use xlink:href="#C0_0_4cdf56a3cc" x="491.690759" y="70.489052" style="fill: #ffebee; stroke: #ffebee"/>
    </g>
    <g clip-path="url(#p4d492bade7)">
     <use xlink:href="#C0_0_4cdf56a3cc" x="396.754621" y="218.588226" style="fill: #e3f2fd; stroke: #e3f2fd"/>
    </g>
    <g clip-path="url(#p4d492bade7)">
     <use xlink:href="#C0_0_4cdf56a3cc" x="491.690759" y="169.221835" style="fill: #e8f5e9; stroke: #e8f5e9"/>
    </g>
    <g clip-path="url(#p4d492bade7)">
     <use xlink:href="#C0_0_4cdf56a3cc" x="491.690759" y="119.855443" style="fill: #eceff1; stroke: #eceff1"/>
    </g>
   </g>
   <g id="text_3">
    <g clip-path="url(#p4d492bade7)">
     <!-- parallel_data_fetch -->
     <g transform="translate(42.237701 516.882823) scale(0.08 -0.08)">
      <defs>
       <path id="DejaVuSans-70" d="M 1159 525 
L 1159 -1331 
L 581 -1331 
L 581 3500 
L 1159 3500 
L 1159 2969 
Q 1341 3281 1617 3432 
Q 1894 3584 2278 3584 
Q 2916 3584 3314 3078 
Q 3713 2572 3713 1747 
Q 3713 922 3314 415 
Q 2916 -91 2278 -91 
Q 1894 -91 1617 61 
Q 1341 213 1159 525 
z
M 3116 1747 
Q 3116 2381 2855 2742 
Q 2594 3103 2138 3103 
Q 1681 3103 1420 2742 
Q 1159 2381 1159 1747 
Q 1159 1113 1420 752 
Q 1681 391 2138 391 
Q 2594 391 2855 752 
Q 3116 1113 3116 1747 
z
" transform="scale(0.015625)"/>
       <path id="DejaVuSans-72" d="M 2631 2963 
Q 2534 3019 2420 3045 
Q 2306 3072 2169 3072 
Q 1681 3072 1420 2755 
Q 1159 2438 1159 1844 
L 1159 0 
L 581 0 
L 581 3500 
L 1159 3500 
L 1159 2956 
Q 1341 3275 1631 3429 
Q 1922 3584 2338 3584 
Q 2397 3584 2469 3576 
Q 2541 3569 2628 3553 
L 2631 2963 
z
" transform="scale(0.015625)"/>
       <path id="DejaVuSans-5f" d="M 3263 -1063 
L 3263 -1509 
L -63 -1509 
L -63 -1063 
L 3263 -1063 
z
" transform="scale(0.015625)"/>
       <path id="DejaVuSans-63" d="M 3122 3366 
L 3122 2828 
Q 2878 2963 2633 3030 
Q 2388 3097 2138 3097 
Q 1578 3097 1268 2742 
Q 959 2388 959 1747 
Q 959 1106 1268 751 
Q 1578 397 2138 397 
Q 2388 397 2633 464 
Q 2878 531 3122 666 
L 3122 134 
Q 2881 22 2623 -34 
Q 2366 -91 2075 -91 
Q 1284 -91 818 406 
Q 353 903 353 1747 
Q 353 2603 823 3093 
Q 1294 3584 2113 3584 
Q 2378 3584 2631 3529 
Q 2884 3475 3122 3366 
z
" transform="scale(0.015625)"/>
       <path id="DejaVuSans-68" d="M 3513 2113 
L 3513 0 
L 2938 0 
L 2938 2094 
Q 2938 2591 2744 2837 
Q 2550 3084 2163 3084 
Q 1697 3084 1428 2787 
Q 1159 2491 1159 1978 
L 1159 0 
L 581 0 
L 581 4863 
L 1159 4863 
L 1159 2956 
Q 1366 3272 1645 3428 
Q 1925 3584 2291 3584 
Q 2894 3584 3203 3211 
Q 3513 2838 3513 2113 
z
" transform="scale(0.015625)"/>
      </defs>
      <use xlink:href="#DejaVuSans-70"/>
      <use xlink:href="#DejaVuSans-61" transform="translate(63.476562 0)"/>
      <use xlink:href="#DejaVuSans-72" transform="translate(124.755859 0)"/>
      <use xlink:href="#DejaVuSans-61" transform="translate(165.869141 0)"/>
      <use xlink:href="#DejaVuSans-6c" transform="translate(227.148438 0)"/>
      <use xlink:href="#DejaVuSans-6c" transform="translate(254.931641 0)"/>
      <use xlink:href="#DejaVuSans-65" transform="translate(282.714844 0)"/>
      <use xlink:href="#DejaVuSans-6c" transform="translate(344.238281 0)"/>
      <use xlink:href="#DejaVuSans-5f" transform="translate(372.021484 0)"/>
      <use xlink:href="#DejaVuSans-64" transform="translate(422.021484 0)"/>
      <use xlink:href="#DejaVuSans-61" transform="translate(485.498047 0)"/>
      <use xlink:href="#DejaVuSans-74" transform="translate(546.777344 0)"/>
      <use xlink:href="#DejaVuSans-61" transform="translate(585.986328 0)"/>
      <use xlink:href="#DejaVuSans-5f" transform="translate(647.265625 0)"/>
      <use xlink:href="#DejaVuSans-66" transform="translate(697.265625 0)"/>
      <use xlink:href="#DejaVuSans-65" transform="translate(732.470703 0)"/>
      <use xlink:href="#DejaVuSans-74" transform="translate(793.994141 0)"/>
      <use xlink:href="#DejaVuSans-63" transform="translate(833.203125 0)"/>
      <use xlink:href="#DejaVuSans-68" transform="translate(888.183594 0)"/>
     </g>
    </g>
   </g>
   <g id="text_4">
    <g clip-path="url(#p4d492bade7)">
     <!-- fetch_sec_data -->
     <g transform="translate(82.019956 467.516432) scale(0.08 -0.08)">
      <defs>
       <path id="DejaVuSans-73" d="M 2834 3397 
L 2834 2853 
Q 2591 2978 2328 3040 
Q 2066 3103 1784 3103 
Q 1356 3103 1142 2972 
Q 928 2841 928 2578 
Q 928 2378 1081 2264 
Q 1234 2150 1697 2047 
L 1894 2003 
Q 2506 1872 2764 1633 
Q 3022 1394 3022 966 
Q 3022 478 2636 193 
Q 2250 -91 1575 -91 
Q 1294 -91 989 -36 
Q 684 19 347 128 
L 347 722 
Q 666 556 975 473 
Q 1284 391 1588 391 
Q 1994 391 2212 530 
Q 2431 669 2431 922 
Q 2431 1156 2273 1281 
Q 2116 1406 1581 1522 
L 1381 1569 
Q 847 1681 609 1914 
Q 372 2147 372 2553 
Q 372 3047 722 3315 
Q 1072 3584 1716 3584 
Q 2034 3584 2315 3537 
Q 2597 3491 2834 3397 
z
" transform="scale(0.015625)"/>
      </defs>
      <use xlink:href="#DejaVuSans-66"/>
      <use xlink:href="#DejaVuSans-65" transform="translate(35.205078 0)"/>
      <use xlink:href="#DejaVuSans-74" transform="translate(96.728516 0)"/>
      <use xlink:href="#DejaVuSans-63" transform="translate(135.9375 0)"/>
      <use xlink:href="#DejaVuSans-68" transform="translate(190.917969 0)"/>
      <use xlink:href="#DejaVuSans-5f" transform="translate(254.296875 0)"/>
      <use xlink:href="#DejaVuSans-73" transform="translate(304.296875 0)"/>
      <use xlink:href="#DejaVuSans-65" transform="translate(356.396484 0)"/>
      <use xlink:href="#DejaVuSans-63" transform="translate(417.919922 0)"/>
      <use xlink:href="#DejaVuSans-5f" transform="translate(472.900391 0)"/>
      <use xlink:href="#DejaVuSans-64" transform="translate(522.900391 0)"/>
      <use xlink:href="#DejaVuSans-61" transform="translate(586.376953 0)"/>
      <use xlink:href="#DejaVuSans-74" transform="translate(647.65625 0)"/>
      <use xlink:href="#DejaVuSans-61" transform="translate(686.865234 0)"/>
     </g>
    </g>
   </g>
   <g id="text_5">
    <g clip-path="url(#p4d492bade7)">
     <!-- fetch_market_data -->
     <g transform="translate(137.86259 368.783649) scale(0.08 -0.08)">
      <defs>
       <path id="DejaVuSans-6d" d="M 3328 2828 
Q 3544 3216 3844 3400 
Q 4144 3584 4550 3584 
Q 5097 3584 5394 3201 
Q 5691 2819 5691 2113 
L 5691 0 
L 5113 0 
L 5113 2094 
Q 5113 2597 4934 2840 
Q 4756 3084 4391 3084 
Q 3944 3084 3684 2787 
Q 3425 2491 3425 1978 
L 3425 0 
L 2847 0 
L 2847 2094 
Q 2847 2600 2669 2842 
Q 2491 3084 2119 3084 
Q 1678 3084 1418 2786 
Q 1159 2488 1159 1978 
L 1159 0 
L 581 0 
L 581 3500 
L 1159 3500 
L 1159 2956 
Q 1356 3278 1631 3431 
Q 1906 3584 2284 3584 
Q 2666 3584 2933 3390 
Q 3200 3197 3328 2828 
z
" transform="scale(0.015625)"/>
       <path id="DejaVuSans-6b" d="M 581 4863 
L 1159 4863 
L 1159 1991 
L 2875 3500 
L 3609 3500 
L 1753 1863 
L 3688 0 
L 2938 0 
L 1159 1709 
L 1159 0 
L 581 0 
L 581 4863 
z
" transform="scale(0.015625)"/>
      </defs>
      <use xlink:href="#DejaVuSans-66"/>
      <use xlink:href="#DejaVuSans-65" transform="translate(35.205078 0)"/>
      <use xlink:href="#DejaVuSans-74" transform="translate(96.728516 0)"/>
      <use xlink:href="#DejaVuSans-63" transform="translate(135.9375 0)"/>
      <use xlink:href="#DejaVuSans-68" transform="translate(190.917969 0)"/>
      <use xlink:href="#DejaVuSans-5f" transform="translate(254.296875 0)"/>
      <use xlink:href="#DejaVuSans-6d" transform="translate(304.296875 0)"/>
      <use xlink:href="#DejaVuSans-61" transform="translate(401.708984 0)"/>
      <use xlink:href="#DejaVuSans-72" transform="translate(462.988281 0)"/>
      <use xlink:href="#DejaVuSans-6b" transform="translate(504.101562 0)"/>
      <use xlink:href="#DejaVuSans-65" transform="translate(558.386719 0)"/>
      <use xlink:href="#DejaVuSans-74" transform="translate(619.910156 0)"/>
      <use xlink:href="#DejaVuSans-5f" transform="translate(659.119141 0)"/>
      <use xlink:href="#DejaVuSans-64" transform="translate(709.119141 0)"/>
      <use xlink:href="#DejaVuSans-61" transform="translate(772.595703 0)"/>
      <use xlink:href="#DejaVuSans-74" transform="translate(833.875 0)"/>
      <use xlink:href="#DejaVuSans-61" transform="translate(873.083984 0)"/>
     </g>
    </g>
   </g>
   <g id="text_6">
    <g clip-path="url(#p4d492bade7)">
     <!-- fetch_macro_data -->
     <g transform="translate(171.151719 418.15004) scale(0.08 -0.08)">
      <use xlink:href="#DejaVuSans-66"/>
      <use xlink:href="#DejaVuSans-65" transform="translate(35.205078 0)"/>
      <use xlink:href="#DejaVuSans-74" transform="translate(96.728516 0)"/>
      <use xlink:href="#DejaVuSans-63" transform="translate(135.9375 0)"/>
      <use xlink:href="#DejaVuSans-68" transform="translate(190.917969 0)"/>
      <use xlink:href="#DejaVuSans-5f" transform="translate(254.296875 0)"/>
      <use xlink:href="#DejaVuSans-6d" transform="translate(304.296875 0)"/>
      <use xlink:href="#DejaVuSans-61" transform="translate(401.708984 0)"/>
      <use xlink:href="#DejaVuSans-63" transform="translate(462.988281 0)"/>
      <use xlink:href="#DejaVuSans-72" transform="translate(517.96875 0)"/>
      <use xlink:href="#DejaVuSans-6f" transform="translate(556.832031 0)"/>
      <use xlink:href="#DejaVuSans-5f" transform="translate(618.013672 0)"/>
      <use xlink:href="#DejaVuSans-64" transform="translate(668.013672 0)"/>
      <use xlink:href="#DejaVuSans-61" transform="translate(731.490234 0)"/>
      <use xlink:href="#DejaVuSans-74" transform="translate(792.769531 0)"/>
      <use xlink:href="#DejaVuSans-61" transform="translate(831.978516 0)"/>
     </g>
    </g>
   </g>
   <g id="text_7">
    <g clip-path="url(#p4d492bade7)">
     <!-- parallel_analysis -->
     <g transform="translate(743.422924 516.882823) scale(0.08 -0.08)">
      <defs>
       <path id="DejaVuSans-6e" d="M 3513 2113 
L 3513 0 
L 2938 0 
L 2938 2094 
Q 2938 2591 2744 2837 
Q 2550 3084 2163 3084 
Q 1697 3084 1428 2787 
Q 1159 2491 1159 1978 
L 1159 0 
L 581 0 
L 581 3500 
L 1159 3500 
L 1159 2956 
Q 1366 3272 1645 3428 
Q 1925 3584 2291 3584 
Q 2894 3584 3203 3211 
Q 3513 2838 3513 2113 
z
" transform="scale(0.015625)"/>
       <path id="DejaVuSans-79" d="M 2059 -325 
Q 1816 -950 1584 -1140 
Q 1353 -1331 966 -1331 
L 506 -1331 
L 506 -850 
L 844 -850 
Q 1081 -850 1212 -737 
Q 1344 -625 1503 -206 
L 1606 56 
L 191 3500 
L 800 3500 
L 1894 763 
L 2988 3500 
L 3597 3500 
L 2059 -325 
z
" transform="scale(0.015625)"/>
       <path id="DejaVuSans-69" d="M 603 3500 
L 1178 3500 
L 1178 0 
L 603 0 
L 603 3500 
z
M 603 4863 
L 1178 4863 
L 1178 4134 
L 603 4134 
L 603 4863 
z
" transform="scale(0.015625)"/>
      </defs>
      <use xlink:href="#DejaVuSans-70"/>
      <use xlink:href="#DejaVuSans-61" transform="translate(63.476562 0)"/>
      <use xlink:href="#DejaVuSans-72" transform="translate(124.755859 0)"/>
      <use xlink:href="#DejaVuSans-61" transform="translate(165.869141 0)"/>
      <use xlink:href="#DejaVuSans-6c" transform="translate(227.148438 0)"/>
      <use xlink:href="#DejaVuSans-6c" transform="translate(254.931641 0)"/>
      <use xlink:href="#DejaVuSans-65" transform="translate(282.714844 0)"/>
      <use xlink:href="#DejaVuSans-6c" transform="translate(344.238281 0)"/>
      <use xlink:href="#DejaVuSans-5f" transform="translate(372.021484 0)"/>
      <use xlink:href="#DejaVuSans-61" transform="translate(422.021484 0)"/>
      <use xlink:href="#DejaVuSans-6e" transform="translate(483.300781 0)"/>
      <use xlink:href="#DejaVuSans-61" transform="translate(546.679688 0)"/>
      <use xlink:href="#DejaVuSans-6c" transform="translate(607.958984 0)"/>
      <use xlink:href="#DejaVuSans-79" transform="translate(635.742188 0)"/>
      <use xlink:href="#DejaVuSans-73" transform="translate(694.921875 0)"/>
      <use xlink:href="#DejaVuSans-69" transform="translate(747.021484 0)"/>
      <use xlink:href="#DejaVuSans-73" transform="translate(774.804688 0)"/>
     </g>
    </g>
   </g>
   <g id="text_8">
    <g clip-path="url(#p4d492bade7)">
     <!-- fundamental_analysis -->
     <g transform="translate(194.840849 368.783649) scale(0.08 -0.08)">
      <use xlink:href="#DejaVuSans-66"/>
      <use xlink:href="#DejaVuSans-75" transform="translate(35.205078 0)"/>
      <use xlink:href="#DejaVuSans-6e" transform="translate(98.583984 0)"/>
      <use xlink:href="#DejaVuSans-64" transform="translate(161.962891 0)"/>
      <use xlink:href="#DejaVuSans-61" transform="translate(225.439453 0)"/>
      <use xlink:href="#DejaVuSans-6d" transform="translate(286.71875 0)"/>
      <use xlink:href="#DejaVuSans-65" transform="translate(384.130859 0)"/>
      <use xlink:href="#DejaVuSans-6e" transform="translate(445.654297 0)"/>
      <use xlink:href="#DejaVuSans-74" transform="translate(509.033203 0)"/>
      <use xlink:href="#DejaVuSans-61" transform="translate(548.242188 0)"/>
      <use xlink:href="#DejaVuSans-6c" transform="translate(609.521484 0)"/>
      <use xlink:href="#DejaVuSans-5f" transform="translate(637.304688 0)"/>
      <use xlink:href="#DejaVuSans-61" transform="translate(687.304688 0)"/>
      <use xlink:href="#DejaVuSans-6e" transform="translate(748.583984 0)"/>
      <use xlink:href="#DejaVuSans-61" transform="translate(811.962891 0)"/>
      <use xlink:href="#DejaVuSans-6c" transform="translate(873.242188 0)"/>
      <use xlink:href="#DejaVuSans-79" transform="translate(901.025391 0)"/>
      <use xlink:href="#DejaVuSans-73" transform="translate(960.205078 0)"/>
      <use xlink:href="#DejaVuSans-69" transform="translate(1012.304688 0)"/>
      <use xlink:href="#DejaVuSans-73" transform="translate(1040.087891 0)"/>
     </g>
    </g>
   </g>
   <g id="text_9">
    <g clip-path="url(#p4d492bade7)">
     <!-- technical_analysis -->
     <g transform="translate(297.096987 220.684476) scale(0.08 -0.08)">
      <use xlink:href="#DejaVuSans-74"/>
      <use xlink:href="#DejaVuSans-65" transform="translate(39.208984 0)"/>
      <use xlink:href="#DejaVuSans-63" transform="translate(100.732422 0)"/>
      <use xlink:href="#DejaVuSans-68" transform="translate(155.712891 0)"/>
      <use xlink:href="#DejaVuSans-6e" transform="translate(219.091797 0)"/>
      <use xlink:href="#DejaVuSans-69" transform="translate(282.470703 0)"/>
      <use xlink:href="#DejaVuSans-63" transform="translate(310.253906 0)"/>
      <use xlink:href="#DejaVuSans-61" transform="translate(365.234375 0)"/>
      <use xlink:href="#DejaVuSans-6c" transform="translate(426.513672 0)"/>
      <use xlink:href="#DejaVuSans-5f" transform="translate(454.296875 0)"/>
      <use xlink:href="#DejaVuSans-61" transform="translate(504.296875 0)"/>
      <use xlink:href="#DejaVuSans-6e" transform="translate(565.576172 0)"/>
      <use xlink:href="#DejaVuSans-61" transform="translate(628.955078 0)"/>
      <use xlink:href="#DejaVuSans-6c" transform="translate(690.234375 0)"/>
      <use xlink:href="#DejaVuSans-79" transform="translate(718.017578 0)"/>
      <use xlink:href="#DejaVuSans-73" transform="translate(777.197266 0)"/>
      <use xlink:href="#DejaVuSans-69" transform="translate(829.296875 0)"/>
      <use xlink:href="#DejaVuSans-73" transform="translate(857.080078 0)"/>
     </g>
    </g>
   </g>
   <g id="text_10">
    <g clip-path="url(#p4d492bade7)">
     <!-- market_context_analysis -->
     <g transform="translate(315.644866 270.050867) scale(0.08 -0.08)">
      <defs>
       <path id="DejaVuSans-78" d="M 3513 3500 
L 2247 1797 
L 3578 0 
L 2900 0 
L 1881 1375 
L 863 0 
L 184 0 
L 1544 1831 
L 300 3500 
L 978 3500 
L 1906 2253 
L 2834 3500 
L 3513 3500 
z
" transform="scale(0.015625)"/>
      </defs>
      <use xlink:href="#DejaVuSans-6d"/>
      <use xlink:href="#DejaVuSans-61" transform="translate(97.412109 0)"/>
      <use xlink:href="#DejaVuSans-72" transform="translate(158.691406 0)"/>
      <use xlink:href="#DejaVuSans-6b" transform="translate(199.804688 0)"/>
      <use xlink:href="#DejaVuSans-65" transform="translate(254.089844 0)"/>
      <use xlink:href="#DejaVuSans-74" transform="translate(315.613281 0)"/>
      <use xlink:href="#DejaVuSans-5f" transform="translate(354.822266 0)"/>
      <use xlink:href="#DejaVuSans-63" transform="translate(404.822266 0)"/>
      <use xlink:href="#DejaVuSans-6f" transform="translate(459.802734 0)"/>
      <use xlink:href="#DejaVuSans-6e" transform="translate(520.984375 0)"/>
      <use xlink:href="#DejaVuSans-74" transform="translate(584.363281 0)"/>
      <use xlink:href="#DejaVuSans-65" transform="translate(623.572266 0)"/>
      <use xlink:href="#DejaVuSans-78" transform="translate(683.345703 0)"/>
      <use xlink:href="#DejaVuSans-74" transform="translate(742.525391 0)"/>
      <use xlink:href="#DejaVuSans-5f" transform="translate(781.734375 0)"/>
      <use xlink:href="#DejaVuSans-61" transform="translate(831.734375 0)"/>
      <use xlink:href="#DejaVuSans-6e" transform="translate(893.013672 0)"/>
      <use xlink:href="#DejaVuSans-61" transform="translate(956.392578 0)"/>
      <use xlink:href="#DejaVuSans-6c" transform="translate(1017.671875 0)"/>
      <use xlink:href="#DejaVuSans-79" transform="translate(1045.455078 0)"/>
      <use xlink:href="#DejaVuSans-73" transform="translate(1104.634766 0)"/>
      <use xlink:href="#DejaVuSans-69" transform="translate(1156.734375 0)"/>
      <use xlink:href="#DejaVuSans-73" transform="translate(1184.517578 0)"/>
     </g>
    </g>
   </g>
   <g id="text_11">
    <g clip-path="url(#p4d492bade7)">
     <!-- check_data_quality -->
     <g transform="translate(611.512656 319.417258) scale(0.08 -0.08)">
      <defs>
       <path id="DejaVuSans-71" d="M 947 1747 
Q 947 1113 1208 752 
Q 1469 391 1925 391 
Q 2381 391 2643 752 
Q 2906 1113 2906 1747 
Q 2906 2381 2643 2742 
Q 2381 3103 1925 3103 
Q 1469 3103 1208 2742 
Q 947 2381 947 1747 
z
M 2906 525 
Q 2725 213 2448 61 
Q 2172 -91 1784 -91 
Q 1150 -91 751 415 
Q 353 922 353 1747 
Q 353 2572 751 3078 
Q 1150 3584 1784 3584 
Q 2172 3584 2448 3432 
Q 2725 3281 2906 2969 
L 2906 3500 
L 3481 3500 
L 3481 -1331 
L 2906 -1331 
L 2906 525 
z
" transform="scale(0.015625)"/>
      </defs>
      <use xlink:href="#DejaVuSans-63"/>
      <use xlink:href="#DejaVuSans-68" transform="translate(54.980469 0)"/>
      <use xlink:href="#DejaVuSans-65" transform="translate(118.359375 0)"/>
      <use xlink:href="#DejaVuSans-63" transform="translate(179.882812 0)"/>
      <use xlink:href="#DejaVuSans-6b" transform="translate(234.863281 0)"/>
      <use xlink:href="#DejaVuSans-5f" transform="translate(292.773438 0)"/>
      <use xlink:href="#DejaVuSans-64" transform="translate(342.773438 0)"/>
      <use xlink:href="#DejaVuSans-61" transform="translate(406.25 0)"/>
      <use xlink:href="#DejaVuSans-74" transform="translate(467.529297 0)"/>
      <use xlink:href="#DejaVuSans-61" transform="translate(506.738281 0)"/>
      <use xlink:href="#DejaVuSans-5f" transform="translate(568.017578 0)"/>
      <use xlink:href="#DejaVuSans-71" transform="translate(618.017578 0)"/>
      <use xlink:href="#DejaVuSans-75" transform="translate(681.494141 0)"/>
      <use xlink:href="#DejaVuSans-61" transform="translate(744.873047 0)"/>
      <use xlink:href="#DejaVuSans-6c" transform="translate(806.152344 0)"/>
      <use xlink:href="#DejaVuSans-69" transform="translate(833.935547 0)"/>
      <use xlink:href="#DejaVuSans-74" transform="translate(861.71875 0)"/>
      <use xlink:href="#DejaVuSans-79" transform="translate(900.927734 0)"/>
     </g>
    </g>
   </g>
   <g id="text_12">
    <g clip-path="url(#p4d492bade7)">
     <!-- request_review -->
     <g transform="translate(461.260759 72.585302) scale(0.08 -0.08)">
      <defs>
       <path id="DejaVuSans-76" d="M 191 3500 
L 800 3500 
L 1894 563 
L 2988 3500 
L 3597 3500 
L 2284 0 
L 1503 0 
L 191 3500 
z
" transform="scale(0.015625)"/>
      </defs>
      <use xlink:href="#DejaVuSans-72"/>
      <use xlink:href="#DejaVuSans-65" transform="translate(38.863281 0)"/>
      <use xlink:href="#DejaVuSans-71" transform="translate(100.386719 0)"/>
      <use xlink:href="#DejaVuSans-75" transform="translate(163.863281 0)"/>
      <use xlink:href="#DejaVuSans-65" transform="translate(227.242188 0)"/>
      <use xlink:href="#DejaVuSans-73" transform="translate(288.765625 0)"/>
      <use xlink:href="#DejaVuSans-74" transform="translate(340.865234 0)"/>
      <use xlink:href="#DejaVuSans-5f" transform="translate(380.074219 0)"/>
      <use xlink:href="#DejaVuSans-72" transform="translate(430.074219 0)"/>
      <use xlink:href="#DejaVuSans-65" transform="translate(468.9375 0)"/>
      <use xlink:href="#DejaVuSans-76" transform="translate(530.460938 0)"/>
      <use xlink:href="#DejaVuSans-69" transform="translate(589.640625 0)"/>
      <use xlink:href="#DejaVuSans-65" transform="translate(617.423828 0)"/>
      <use xlink:href="#DejaVuSans-77" transform="translate(678.947266 0)"/>
     </g>
    </g>
   </g>
   <g id="text_13">
    <g clip-path="url(#p4d492bade7)">
     <!-- synthesize -->
     <g transform="translate(375.448371 220.795726) scale(0.08 -0.08)">
      <defs>
       <path id="DejaVuSans-7a" d="M 353 3500 
L 3084 3500 
L 3084 2975 
L 922 459 
L 3084 459 
L 3084 0 
L 275 0 
L 275 525 
L 2438 3041 
L 353 3041 
L 353 3500 
z
" transform="scale(0.015625)"/>
      </defs>
      <use xlink:href="#DejaVuSans-73"/>
      <use xlink:href="#DejaVuSans-79" transform="translate(52.099609 0)"/>
      <use xlink:href="#DejaVuSans-6e" transform="translate(111.279297 0)"/>
      <use xlink:href="#DejaVuSans-74" transform="translate(174.658203 0)"/>
      <use xlink:href="#DejaVuSans-68" transform="translate(213.867188 0)"/>
      <use xlink:href="#DejaVuSans-65" transform="translate(277.246094 0)"/>
      <use xlink:href="#DejaVuSans-73" transform="translate(338.769531 0)"/>
      <use xlink:href="#DejaVuSans-69" transform="translate(390.869141 0)"/>
      <use xlink:href="#DejaVuSans-7a" transform="translate(418.652344 0)"/>
      <use xlink:href="#DejaVuSans-65" transform="translate(471.142578 0)"/>
     </g>
    </g>
   </g>
   <g id="text_14">
    <g clip-path="url(#p4d492bade7)">
     <!-- generate_report -->
     <g transform="translate(459.353884 171.206835) scale(0.08 -0.08)">
      <defs>
       <path id="DejaVuSans-67" d="M 2906 1791 
Q 2906 2416 2648 2759 
Q 2391 3103 1925 3103 
Q 1463 3103 1205 2759 
Q 947 2416 947 1791 
Q 947 1169 1205 825 
Q 1463 481 1925 481 
Q 2391 481 2648 825 
Q 2906 1169 2906 1791 
z
M 3481 434 
Q 3481 -459 3084 -895 
Q 2688 -1331 1869 -1331 
Q 1566 -1331 1297 -1286 
Q 1028 -1241 775 -1147 
L 775 -588 
Q 1028 -725 1275 -790 
Q 1522 -856 1778 -856 
Q 2344 -856 2625 -561 
Q 2906 -266 2906 331 
L 2906 616 
Q 2728 306 2450 153 
Q 2172 0 1784 0 
Q 1141 0 747 490 
Q 353 981 353 1791 
Q 353 2603 747 3093 
Q 1141 3584 1784 3584 
Q 2172 3584 2450 3431 
Q 2728 3278 2906 2969 
L 2906 3500 
L 3481 3500 
L 3481 434 
z
" transform="scale(0.015625)"/>
      </defs>
      <use xlink:href="#DejaVuSans-67"/>
      <use xlink:href="#DejaVuSans-65" transform="translate(63.476562 0)"/>
      <use xlink:href="#DejaVuSans-6e" transform="translate(125 0)"/>
      <use xlink:href="#DejaVuSans-65" transform="translate(188.378906 0)"/>
      <use xlink:href="#DejaVuSans-72" transform="translate(249.902344 0)"/>
      <use xlink:href="#DejaVuSans-61" transform="translate(291.015625 0)"/>
      <use xlink:href="#DejaVuSans-74" transform="translate(352.294922 0)"/>
      <use xlink:href="#DejaVuSans-65" transform="translate(391.503906 0)"/>
      <use xlink:href="#DejaVuSans-5f" transform="translate(453.027344 0)"/>
      <use xlink:href="#DejaVuSans-72" transform="translate(503.027344 0)"/>
      <use xlink:href="#DejaVuSans-65" transform="translate(541.890625 0)"/>
      <use xlink:href="#DejaVuSans-70" transform="translate(603.414062 0)"/>
      <use xlink:href="#DejaVuSans-6f" transform="translate(666.890625 0)"/>
      <use xlink:href="#DejaVuSans-72" transform="translate(728.072266 0)"/>
      <use xlink:href="#DejaVuSans-74" transform="translate(769.185547 0)"/>
     </g>
    </g>
   </g>
   <g id="text_15">
    <g clip-path="url(#p4d492bade7)">
     <!-- complete -->
     <g transform="translate(473.006384 122.062943) scale(0.08 -0.08)">
      <use xlink:href="#DejaVuSans-63"/>
      <use xlink:href="#DejaVuSans-6f" transform="translate(54.980469 0)"/>
      <use xlink:href="#DejaVuSans-6d" transform="translate(116.162109 0)"/>
      <use xlink:href="#DejaVuSans-70" transform="translate(213.574219 0)"/>
      <use xlink:href="#DejaVuSans-6c" transform="translate(277.050781 0)"/>
      <use xlink:href="#DejaVuSans-65" transform="translate(304.833984 0)"/>
      <use xlink:href="#DejaVuSans-74" transform="translate(366.357422 0)"/>
      <use xlink:href="#DejaVuSans-65" transform="translate(405.566406 0)"/>
     </g>
    </g>
   </g>
   <g id="text_16">
    <!-- comprehensive -->
    <g transform="translate(368.345469 17.837812) scale(0.14 -0.14)">
     <defs>
      <path id="DejaVuSans-Bold-63" d="M 3366 3391 
L 3366 2478 
Q 3138 2634 2908 2709 
Q 2678 2784 2431 2784 
Q 1963 2784 1702 2511 
Q 1441 2238 1441 1747 
Q 1441 1256 1702 982 
Q 1963 709 2431 709 
Q 2694 709 2930 787 
Q 3166 866 3366 1019 
L 3366 103 
Q 3103 6 2833 -42 
Q 2563 -91 2291 -91 
Q 1344 -91 809 395 
Q 275 881 275 1747 
Q 275 2613 809 3098 
Q 1344 3584 2291 3584 
Q 2566 3584 2833 3536 
Q 3100 3488 3366 3391 
z
" transform="scale(0.015625)"/>
      <path id="DejaVuSans-Bold-6f" d="M 2203 2784 
Q 1831 2784 1636 2517 
Q 1441 2250 1441 1747 
Q 1441 1244 1636 976 
Q 1831 709 2203 709 
Q 2569 709 2762 976 
Q 2956 1244 2956 1747 
Q 2956 2250 2762 2517 
Q 2569 2784 2203 2784 
z
M 2203 3584 
Q 3106 3584 3614 3096 
Q 4122 2609 4122 1747 
Q 4122 884 3614 396 
Q 3106 -91 2203 -91 
Q 1297 -91 786 396 
Q 275 884 275 1747 
Q 275 2609 786 3096 
Q 1297 3584 2203 3584 
z
" transform="scale(0.015625)"/>
      <path id="DejaVuSans-Bold-6d" d="M 3781 2919 
Q 3994 3244 4286 3414 
Q 4578 3584 4928 3584 
Q 5531 3584 5847 3212 
Q 6163 2841 6163 2131 
L 6163 0 
L 5038 0 
L 5038 1825 
Q 5041 1866 5042 1909 
Q 5044 1953 5044 2034 
Q 5044 2406 4934 2573 
Q 4825 2741 4581 2741 
Q 4263 2741 4089 2478 
Q 3916 2216 3909 1719 
L 3909 0 
L 2784 0 
L 2784 1825 
Q 2784 2406 2684 2573 
Q 2584 2741 2328 2741 
Q 2006 2741 1831 2477 
Q 1656 2213 1656 1722 
L 1656 0 
L 531 0 
L 531 3500 
L 1656 3500 
L 1656 2988 
Q 1863 3284 2130 3434 
Q 2397 3584 2719 3584 
Q 3081 3584 3359 3409 
Q 3638 3234 3781 2919 
z
" transform="scale(0.015625)"/>
      <path id="DejaVuSans-Bold-70" d="M 1656 506 
L 1656 -1331 
L 538 -1331 
L 538 3500 
L 1656 3500 
L 1656 2988 
Q 1888 3294 2169 3439 
Q 2450 3584 2816 3584 
Q 3463 3584 3878 3070 
Q 4294 2556 4294 1747 
Q 4294 938 3878 423 
Q 3463 -91 2816 -91 
Q 2450 -91 2169 54 
Q 1888 200 1656 506 
z
M 2400 2772 
Q 2041 2772 1848 2508 
Q 1656 2244 1656 1747 
Q 1656 1250 1848 986 
Q 2041 722 2400 722 
Q 2759 722 2948 984 
Q 3138 1247 3138 1747 
Q 3138 2247 2948 2509 
Q 2759 2772 2400 2772 
z
" transform="scale(0.015625)"/>
      <path id="DejaVuSans-Bold-72" d="M 3138 2547 
Q 2991 2616 2845 2648 
Q 2700 2681 2553 2681 
Q 2122 2681 1889 2404 
Q 1656 2128 1656 1613 
L 1656 0 
L 538 0 
L 538 3500 
L 1656 3500 
L 1656 2925 
Q 1872 3269 2151 3426 
Q 2431 3584 2822 3584 
Q 2878 3584 2943 3579 
Q 3009 3575 3134 3559 
L 3138 2547 
z
" transform="scale(0.015625)"/>
      <path id="DejaVuSans-Bold-65" d="M 4031 1759 
L 4031 1441 
L 1416 1441 
Q 1456 1047 1700 850 
Q 1944 653 2381 653 
Q 2734 653 3104 758 
Q 3475 863 3866 1075 
L 3866 213 
Q 3469 63 3072 -14 
Q 2675 -91 2278 -91 
Q 1328 -91 801 392 
Q 275 875 275 1747 
Q 275 2603 792 3093 
Q 1309 3584 2216 3584 
Q 3041 3584 3536 3087 
Q 4031 2591 4031 1759 
z
M 2881 2131 
Q 2881 2450 2695 2645 
Q 2509 2841 2209 2841 
Q 1884 2841 1681 2658 
Q 1478 2475 1428 2131 
L 2881 2131 
z
" transform="scale(0.015625)"/>
      <path id="DejaVuSans-Bold-68" d="M 4056 2131 
L 4056 0 
L 2931 0 
L 2931 347 
L 2931 1625 
Q 2931 2084 2911 2256 
Q 2891 2428 2841 2509 
Q 2775 2619 2662 2680 
Q 2550 2741 2406 2741 
Q 2056 2741 1856 2470 
Q 1656 2200 1656 1722 
L 1656 0 
L 538 0 
L 538 4863 
L 1656 4863 
L 1656 2988 
Q 1909 3294 2193 3439 
Q 2478 3584 2822 3584 
Q 3428 3584 3742 3212 
Q 4056 2841 4056 2131 
z
" transform="scale(0.015625)"/>
      <path id="DejaVuSans-Bold-6e" d="M 4056 2131 
L 4056 0 
L 2931 0 
L 2931 347 
L 2931 1631 
Q 2931 2084 2911 2256 
Q 2891 2428 2841 2509 
Q 2775 2619 2662 2680 
Q 2550 2741 2406 2741 
Q 2056 2741 1856 2470 
Q 1656 2200 1656 1722 
L 1656 0 
L 538 0 
L 538 3500 
L 1656 3500 
L 1656 2988 
Q 1909 3294 2193 3439 
Q 2478 3584 2822 3584 
Q 3428 3584 3742 3212 
Q 4056 2841 4056 2131 
z
" transform="scale(0.015625)"/>
      <path id="DejaVuSans-Bold-73" d="M 3272 3391 
L 3272 2541 
Q 2913 2691 2578 2766 
Q 2244 2841 1947 2841 
Q 1628 2841 1473 2761 
Q 1319 2681 1319 2516 
Q 1319 2381 1436 2309 
Q 1553 2238 1856 2203 
L 2053 2175 
Q 2913 2066 3209 1816 
Q 3506 1566 3506 1031 
Q 3506 472 3093 190 
Q 2681 -91 1863 -91 
Q 1516 -91 1145 -36 
Q 775 19 384 128 
L 384 978 
Q 719 816 1070 734 
Q 1422 653 1784 653 
Q 2113 653 2278 743 
Q 2444 834 2444 1013 
Q 2444 1163 2330 1236 
Q 2216 1309 1875 1350 
L 1678 1375 
Q 931 1469 631 1722 
Q 331 1975 331 2491 
Q 331 3047 712 3315 
Q 1094 3584 1881 3584 
Q 2191 3584 2531 3537 
Q 2872 3491 3272 3391 
z
" transform="scale(0.015625)"/>
      <path id="DejaVuSans-Bold-69" d="M 538 3500 
L 1656 3500 
L 1656 0 
L 538 0 
L 538 3500 
z
M 538 4863 
L 1656 4863 
L 1656 3950 
L 538 3950 
L 538 4863 
z
" transform="scale(0.015625)"/>
      <path id="DejaVuSans-Bold-76" d="M 97 3500 
L 1216 3500 
L 2088 1081 
L 2956 3500 
L 4078 3500 
L 2700 0 
L 1472 0 
L 97 3500 
z
" transform="scale(0.015625)"/>
     </defs>
     <use xlink:href="#DejaVuSans-Bold-63"/>
     <use xlink:href="#DejaVuSans-Bold-6f" transform="translate(59.277344 0)"/>
     <use xlink:href="#DejaVuSans-Bold-6d" transform="translate(127.978516 0)"/>
     <use xlink:href="#DejaVuSans-Bold-70" transform="translate(232.177734 0)"/>
     <use xlink:href="#DejaVuSans-Bold-72" transform="translate(303.759766 0)"/>
     <use xlink:href="#DejaVuSans-Bold-65" transform="translate(353.076172 0)"/>
     <use xlink:href="#DejaVuSans-Bold-68" transform="translate(420.898438 0)"/>
     <use xlink:href="#DejaVuSans-Bold-65" transform="translate(492.089844 0)"/>
     <use xlink:href="#DejaVuSans-Bold-6e" transform="translate(559.912109 0)"/>
     <use xlink:href="#DejaVuSans-Bold-73" transform="translate(631.103516 0)"/>
     <use xlink:href="#DejaVuSans-Bold-69" transform="translate(690.625 0)"/>
     <use xlink:href="#DejaVuSans-Bold-76" transform="translate(724.902344 0)"/>
     <use xlink:href="#DejaVuSans-Bold-65" transform="translate(790.087891 0)"/>
    </g>
   </g>
  </g>
 </g>
 <defs>
  <clipPath id="p4d492bade7">
   <rect x="7.2" y="23.837812" width="842.4" height="537.6"/>
  </clipPath>
 </defs>
</svg>
