<?xml version="1.0" encoding="utf-8" standalone="no"?>
<!DOCTYPE svg PUBLIC "-//W3C//DTD SVG 1.1//EN"
  "http://www.w3.org/Graphics/SVG/1.1/DTD/svg11.dtd">
<svg xmlns:xlink="http://www.w3.org/1999/xlink" width="856.8pt" height="568.637812pt" viewBox="0 0 856.8 568.637812" xmlns="http://www.w3.org/2000/svg" version="1.1">
 <metadata>
  <rdf:RDF xmlns:dc="http://purl.org/dc/elements/1.1/" xmlns:cc="http://creativecommons.org/ns#" xmlns:rdf="http://www.w3.org/1999/02/22-rdf-syntax-ns#">
   <cc:Work>
    <dc:type rdf:resource="http://purl.org/dc/dcmitype/StillImage"/>
    <dc:date>2026-01-03T03:51:15.243268</dc:date>
    <dc:format>image/svg+xml</dc:format>
    <dc:creator>
     <cc:Agent>
      <dc:title>Matplotlib v3.10.8, https://matplotlib.org/</dc:title>
     </cc:Agent>
    </dc:creator>
   </cc:Work>
  </rdf:RDF>
 </metadata>
 <defs>
  <style type="text/css">*{stroke-linejoin: round; stroke-linecap: butt}</style>
 </defs>
 <g id="figure_1">
  <g id="patch_1">
   <path d="M 0 568.637812 
L 856.8 568.637812 
L 856.8 0 
L 0 0 
z
" style="fill: #ffffff"/>
  </g>
  <g id="axes_1">
   <g id="patch_2">
    <path d="M 88.961344 514.786573 
Q 428.401412 514.786573 766.723446 514.786573 
" clip-path="url(#p2bda1a866a)" style="fill: none; stroke: #666666; stroke-linecap: round"/>
    <path d="M 762.723446 512.786573 
L 766.723446 514.786573 
L 762.723446 516.786573 
z
" clip-path="url(#p2bda1a866a)" style="fill: #666666; stroke: #666666; stroke-linecap: round"/>
   </g>
   <g id="patch_3">
    <path d="M 143.659026 433.919127 
Q 167.325579 403.712245 190.302601 374.385447 
" clip-path="url(#p2bda1a866a)" style="fill: none; stroke: #666666; stroke-linecap: round"/>
    <path d="M 186.261321 376.300663 
L 190.302601 374.385447 
L 189.410005 378.767601 
z
" clip-path="url(#p2bda1a866a)" style="fill: #666666; stroke: #666666; stroke-linecap: round"/>
   </g>
   <g id="patch_4">
    <path d="M 204.721742 368.828573 
Q 486.416091 440.736874 767.027145 512.368642 
" clip-path="url(#p2bda1a866a)" style="fill: none; stroke: #666666; stroke-linecap: round"/>
    <path d="M 763.646107 509.441427 
L 767.027145 512.368642 
L 762.656751 513.317143 
z
" clip-path="url(#p2bda1a866a)" style="fill: #666666; stroke: #666666; stroke-linecap: round"/>
   </g>
   <g id="patch_5">
    <path d="M 771.157503 507.968714 
Q 660.465181 366.686206 550.462389 226.283782 
" clip-path="url(#p2bda1a866a)" style="fill: none; stroke: #666666; stroke-linecap: round"/>
    <path d="M 551.354985 230.665936 
L 550.462389 226.283782 
L 554.503669 228.198998 
z
" clip-path="url(#p2bda1a866a)" style="fill: #666666; stroke: #666666; stroke-linecap: round"/>
   </g>
   <g id="patch_6">
    <path d="M 259.692084 285.819954 
Q 312.366598 218.588665 364.351582 152.237461 
" clip-path="url(#p2bda1a866a)" style="fill: none; stroke: #666666; stroke-linecap: round"/>
    <path d="M 360.310301 154.152676 
L 364.351582 152.237461 
L 363.458986 156.619615 
z
" clip-path="url(#p2bda1a866a)" style="fill: #666666; stroke: #666666; stroke-linecap: round"/>
   </g>
   <g id="patch_7">
    <path d="M 378.353485 147.92949 
Q 457.408284 181.563441 535.434289 214.75969 
" clip-path="url(#p2bda1a866a)" style="fill: none; stroke: #666666; stroke-linecap: round"/>
    <path d="M 532.536548 211.353358 
L 535.434289 214.75969 
L 530.970579 215.034084 
z
" clip-path="url(#p2bda1a866a)" style="fill: #666666; stroke: #666666; stroke-linecap: round"/>
   </g>
   <g id="patch_8">
    <path d="M 539.091387 211.770367 
Q 486.416873 144.539078 434.431889 78.187874 
" clip-path="url(#p2bda1a866a)" style="fill: none; stroke: #666666; stroke-linecap: round"/>
    <path d="M 435.324485 82.570028 
L 434.431889 78.187874 
L 438.47317 80.10309 
z
" clip-path="url(#p2bda1a866a)" style="fill: #666666; stroke: #666666; stroke-linecap: round"/>
   </g>
   <g id="PathCollection_1">
    <defs>
     <path id="C0_0_b3314dab43" d="M 0 22.36068 
C 5.930122 22.36068 11.618159 20.004617 15.811388 15.811388 
C 20.004617 11.618159 22.36068 5.930122 22.36068 -0 
C 22.36068 -5.930122 20.004617 -11.618159 15.811388 -15.811388 
C 11.618159 -20.004617 5.930122 -22.36068 0 -22.36068 
C -5.930122 -22.36068 -11.618159 -20.004617 -15.811388 -15.811388 
C -20.004617 -11.618159 -22.36068 -5.930122 -22.36068 0 
C -22.36068 5.930122 -20.004617 11.618159 -15.811388 15.811388 
C -11.618159 20.004617 -5.930122 22.36068 0 22.36068 
z
"/>
    </defs>
    <g clip-path="url(#p2bda1a866a)">
     <use xlink:href="#C0_0_b3314dab43" x="80.300826" y="514.786573" style="fill: #f3e5f5; stroke: #f3e5f5"/>
    </g>
    <g clip-path="url(#p2bda1a866a)">
     <use xlink:href="#C0_0_b3314dab43" x="138.317355" y="440.736986" style="fill: #e8f5e9; stroke: #e8f5e9"/>
    </g>
    <g clip-path="url(#p2bda1a866a)">
     <use xlink:href="#C0_0_b3314dab43" x="196.333884" y="366.687399" style="fill: #e8f5e9; stroke: #e8f5e9"/>
    </g>
    <g clip-path="url(#p2bda1a866a)">
     <use xlink:href="#C0_0_b3314dab43" x="776.499174" y="514.786573" style="fill: #f3e5f5; stroke: #f3e5f5"/>
    </g>
    <g clip-path="url(#p2bda1a866a)">
     <use xlink:href="#C0_0_b3314dab43" x="254.350413" y="292.637812" style="fill: #e8f5e9; stroke: #e8f5e9"/>
    </g>
    <g clip-path="url(#p2bda1a866a)">
     <use xlink:href="#C0_0_b3314dab43" x="370.383471" y="144.538639" style="fill: #e8f5e9; stroke: #e8f5e9"/>
    </g>
    <g clip-path="url(#p2bda1a866a)">
     <use xlink:href="#C0_0_b3314dab43" x="544.433058" y="218.588226" style="fill: #e8f5e9; stroke: #e8f5e9"/>
    </g>
    <g clip-path="url(#p2bda1a866a)">
     <use xlink:href="#C0_0_b3314dab43" x="428.4" y="70.489052" style="fill: #eceff1; stroke: #eceff1"/>
    </g>
   </g>
   <g id="text_1">
    <g clip-path="url(#p2bda1a866a)">
     <!-- parallel_data_fetch -->
     <g transform="translate(42.237701 516.882823) scale(0.08 -0.08)">
      <defs>
       <path id="DejaVuSans-70" d="M 1159 525 
L 1159 -1331 
L 581 -1331 
L 581 3500 
L 1159 3500 
L 1159 2969 
Q 1341 3281 1617 3432 
Q 1894 3584 2278 3584 
Q 2916 3584 3314 3078 
Q 3713 2572 3713 1747 
Q 3713 922 3314 415 
Q 2916 -91 2278 -91 
Q 1894 -91 1617 61 
Q 1341 213 1159 525 
z
M 3116 1747 
Q 3116 2381 2855 2742 
Q 2594 3103 2138 3103 
Q 1681 3103 1420 2742 
Q 1159 2381 1159 1747 
Q 1159 1113 1420 752 
Q 1681 391 2138 391 
Q 2594 391 2855 752 
Q 3116 1113 3116 1747 
z
" transform="scale(0.015625)"/>
       <path id="DejaVuSans-61" d="M 2194 1759 
Q 1497 1759 1228 1600 
Q 959 1441 959 1056 
Q 959 750 1161 570 
Q 1363 391 1709 391 
Q 2188 391 2477 730 
Q 2766 1069 2766 1631 
L 2766 1759 
L 2194 1759 
z
M 3341 1997 
L 3341 0 
L 2766 0 
L 2766 531 
Q 2569 213 2275 61 
Q 1981 -91 1556 -91 
Q 1019 -91 701 211 
Q 384 513 384 1019 
Q 384 1609 779 1909 
Q 1175 2209 1959 2209 
L 2766 2209 
L 2766 2266 
Q 2766 2663 2505 2880 
Q 2244 3097 1772 3097 
Q 1472 3097 1187 3025 
Q 903 2953 641 2809 
L 641 3341 
Q 956 3463 1253 3523 
Q 1550 3584 1831 3584 
Q 2591 3584 2966 3190 
Q 3341 2797 3341 1997 
z
" transform="scale(0.015625)"/>
       <path id="DejaVuSans-72" d="M 2631 2963 
Q 2534 3019 2420 3045 
Q 2306 3072 2169 3072 
Q 1681 3072 1420 2755 
Q 1159 2438 1159 1844 
L 1159 0 
L 581 0 
L 581 3500 
L 1159 3500 
L 1159 2956 
Q 1341 3275 1631 3429 
Q 1922 3584 2338 3584 
Q 2397 3584 2469 3576 
Q 2541 3569 2628 3553 
L 2631 2963 
z
" transform="scale(0.015625)"/>
       <path id="DejaVuSans-6c" d="M 603 4863 
L 1178 4863 
L 1178 0 
L 603 0 
L 603 4863 
z
" transform="scale(0.015625)"/>
       <path id="DejaVuSans-65" d="M 3597 1894 
L 3597 1613 
L 953 1613 
Q 991 1019 1311 708 
Q 1631 397 2203 397 
Q 2534 397 2845 478 
Q 3156 559 3463 722 
L 3463 178 
Q 3153 47 2828 -22 
Q 2503 -91 2169 -91 
Q 1331 -91 842 396 
Q 353 884 353 1716 
Q 353 2575 817 3079 
Q 1281 3584 2069 3584 
Q 2775 3584 3186 3129 
Q 3597 2675 3597 1894 
z
M 3022 2063 
Q 3016 2534 2758 2815 
Q 2500 3097 2075 3097 
Q 1594 3097 1305 2825 
Q 1016 2553 972 2059 
L 3022 2063 
z
" transform="scale(0.015625)"/>
       <path id="DejaVuSans-5f" d="M 3263 -1063 
L 3263 -1509 
L -63 -1509 
L -63 -1063 
L 3263 -1063 
z
" transform="scale(0.015625)"/>
       <path id="DejaVuSans-64" d="M 2906 2969 
L 2906 4863 
L 3481 4863 
L 3481 0 
L 2906 0 
L 2906 525 
Q 2725 213 2448 61 
Q 2172 -91 1784 -91 
Q 1150 -91 751 415 
Q 353 922 353 1747 
Q 353 2572 751 3078 
Q 1150 3584 1784 3584 
Q 2172 3584 2448 3432 
Q 2725 3281 2906 2969 
z
M 947 1747 
Q 947 1113 1208 752 
Q 1469 391 1925 391 
Q 2381 391 2643 752 
Q 2906 1113 2906 1747 
Q 2906 2381 2643 2742 
Q 2381 3103 1925 3103 
Q 1469 3103 1208 2742 
Q 947 2381 947 1747 
z
" transform="scale(0.015625)"/>
       <path id="DejaVuSans-74" d="M 1172 4494 
L 1172 3500 
L 2356 3500 
L 2356 3053 
L 1172 3053 
L 1172 1153 
Q 1172 725 1289 603 
Q 1406 481 1766 481 
L 2356 481 
L 2356 0 
L 1766 0 
Q 1100 0 847 248 
Q 594 497 594 1153 
L 594 3053 
L 172 3053 
L 172 3500 
L 594 3500 
L 594 4494 
L 1172 4494 
z
" transform="scale(0.015625)"/>
       <path id="DejaVuSans-66" d="M 2375 4863 
L 2375 4384 
L 1825 4384 
Q 1516 4384 1395 4259 
Q 1275 4134 1275 3809 
L 1275 3500 
L 2222 3500 
L 2222 3053 
L 1275 3053 
L 1275 0 
L 697 0 
L 697 3053 
L 147 3053 
L 147 3500 
L 697 3500 
L 697 3744 
Q 697 4328 969 4595 
Q 1241 4863 1831 4863 
L 2375 4863 
z
" transform="scale(0.015625)"/>
       <path id="DejaVuSans-63" d="M 3122 3366 
L 3122 2828 
Q 2878 2963 2633 3030 
Q 2388 3097 2138 3097 
Q 1578 3097 1268 2742 
Q 959 2388 959 1747 
Q 959 1106 1268 751 
Q 1578 397 2138 397 
Q 2388 397 2633 464 
Q 2878 531 3122 666 
L 3122 134 
Q 2881 22 2623 -34 
Q 2366 -91 2075 -91 
Q 1284 -91 818 406 
Q 353 903 353 1747 
Q 353 2603 823 3093 
Q 1294 3584 2113 3584 
Q 2378 3584 2631 3529 
Q 2884 3475 3122 3366 
z
" transform="scale(0.015625)"/>
       <path id="DejaVuSans-68" d="M 3513 2113 
L 3513 0 
L 2938 0 
L 2938 2094 
Q 2938 2591 2744 2837 
Q 2550 3084 2163 3084 
Q 1697 3084 1428 2787 
Q 1159 2491 1159 1978 
L 1159 0 
L 581 0 
L 581 4863 
L 1159 4863 
L 1159 2956 
Q 1366 3272 1645 3428 
Q 1925 3584 2291 3584 
Q 2894 3584 3203 3211 
Q 3513 2838 3513 2113 
z
" transform="scale(0.015625)"/>
      </defs>
      <use xlink:href="#DejaVuSans-70"/>
      <use xlink:href="#DejaVuSans-61" transform="translate(63.476562 0)"/>
      <use xlink:href="#DejaVuSans-72" transform="translate(124.755859 0)"/>
      <use xlink:href="#DejaVuSans-61" transform="translate(165.869141 0)"/>
      <use xlink:href="#DejaVuSans-6c" transform="translate(227.148438 0)"/>
      <use xlink:href="#DejaVuSans-6c" transform="translate(254.931641 0)"/>
      <use xlink:href="#DejaVuSans-65" transform="translate(282.714844 0)"/>
      <use xlink:href="#DejaVuSans-6c" transform="translate(344.238281 0)"/>
      <use xlink:href="#DejaVuSans-5f" transform="translate(372.021484 0)"/>
      <use xlink:href="#DejaVuSans-64" transform="translate(422.021484 0)"/>
      <use xlink:href="#DejaVuSans-61" transform="translate(485.498047 0)"/>
      <use xlink:href="#DejaVuSans-74" transform="translate(546.777344 0)"/>
      <use xlink:href="#DejaVuSans-61" transform="translate(585.986328 0)"/>
      <use xlink:href="#DejaVuSans-5f" transform="translate(647.265625 0)"/>
      <use xlink:href="#DejaVuSans-66" transform="translate(697.265625 0)"/>
      <use xlink:href="#DejaVuSans-65" transform="translate(732.470703 0)"/>
      <use xlink:href="#DejaVuSans-74" transform="translate(793.994141 0)"/>
      <use xlink:href="#DejaVuSans-63" transform="translate(833.203125 0)"/>
      <use xlink:href="#DejaVuSans-68" transform="translate(888.183594 0)"/>
     </g>
    </g>
   </g>
   <g id="text_2">
    <g clip-path="url(#p2bda1a866a)">
     <!-- fetch_sec_data -->
     <g transform="translate(108.391105 442.833236) scale(0.08 -0.08)">
      <defs>
       <path id="DejaVuSans-73" d="M 2834 3397 
L 2834 2853 
Q 2591 2978 2328 3040 
Q 2066 3103 1784 3103 
Q 1356 3103 1142 2972 
Q 928 2841 928 2578 
Q 928 2378 1081 2264 
Q 1234 2150 1697 2047 
L 1894 2003 
Q 2506 1872 2764 1633 
Q 3022 1394 3022 966 
Q 3022 478 2636 193 
Q 2250 -91 1575 -91 
Q 1294 -91 989 -36 
Q 684 19 347 128 
L 347 722 
Q 666 556 975 473 
Q 1284 391 1588 391 
Q 1994 391 2212 530 
Q 2431 669 2431 922 
Q 2431 1156 2273 1281 
Q 2116 1406 1581 1522 
L 1381 1569 
Q 847 1681 609 1914 
Q 372 2147 372 2553 
Q 372 3047 722 3315 
Q 1072 3584 1716 3584 
Q 2034 3584 2315 3537 
Q 2597 3491 2834 3397 
z
" transform="scale(0.015625)"/>
      </defs>
      <use xlink:href="#DejaVuSans-66"/>
      <use xlink:href="#DejaVuSans-65" transform="translate(35.205078 0)"/>
      <use xlink:href="#DejaVuSans-74" transform="translate(96.728516 0)"/>
      <use xlink:href="#DejaVuSans-63" transform="translate(135.9375 0)"/>
      <use xlink:href="#DejaVuSans-68" transform="translate(190.917969 0)"/>
      <use xlink:href="#DejaVuSans-5f" transform="translate(254.296875 0)"/>
      <use xlink:href="#DejaVuSans-73" transform="translate(304.296875 0)"/>
      <use xlink:href="#DejaVuSans-65" transform="translate(356.396484 0)"/>
      <use xlink:href="#DejaVuSans-63" transform="translate(417.919922 0)"/>
      <use xlink:href="#DejaVuSans-5f" transform="translate(472.900391 0)"/>
      <use xlink:href="#DejaVuSans-64" transform="translate(522.900391 0)"/>
      <use xlink:href="#DejaVuSans-61" transform="translate(586.376953 0)"/>
      <use xlink:href="#DejaVuSans-74" transform="translate(647.65625 0)"/>
      <use xlink:href="#DejaVuSans-61" transform="translate(686.865234 0)"/>
     </g>
    </g>
   </g>
   <g id="text_3">
    <g clip-path="url(#p2bda1a866a)">
     <!-- fetch_market_data -->
     <g transform="translate(158.959509 368.783649) scale(0.08 -0.08)">
      <defs>
       <path id="DejaVuSans-6d" d="M 3328 2828 
Q 3544 3216 3844 3400 
Q 4144 3584 4550 3584 
Q 5097 3584 5394 3201 
Q 5691 2819 5691 2113 
L 5691 0 
L 5113 0 
L 5113 2094 
Q 5113 2597 4934 2840 
Q 4756 3084 4391 3084 
Q 3944 3084 3684 2787 
Q 3425 2491 3425 1978 
L 3425 0 
L 2847 0 
L 2847 2094 
Q 2847 2600 2669 2842 
Q 2491 3084 2119 3084 
Q 1678 3084 1418 2786 
Q 1159 2488 1159 1978 
L 1159 0 
L 581 0 
L 581 3500 
L 1159 3500 
L 1159 2956 
Q 1356 3278 1631 3431 
Q 1906 3584 2284 3584 
Q 2666 3584 2933 3390 
Q 3200 3197 3328 2828 
z
" transform="scale(0.015625)"/>
       <path id="DejaVuSans-6b" d="M 581 4863 
L 1159 4863 
L 1159 1991 
L 2875 3500 
L 3609 3500 
L 1753 1863 
L 3688 0 
L 2938 0 
L 1159 1709 
L 1159 0 
L 581 0 
L 581 4863 
z
" transform="scale(0.015625)"/>
      </defs>
      <use xlink:href="#DejaVuSans-66"/>
      <use xlink:href="#DejaVuSans-65" transform="translate(35.205078 0)"/>
      <use xlink:href="#DejaVuSans-74" transform="translate(96.728516 0)"/>
      <use xlink:href="#DejaVuSans-63" transform="translate(135.9375 0)"/>
      <use xlink:href="#DejaVuSans-68" transform="translate(190.917969 0)"/>
      <use xlink:href="#DejaVuSans-5f" transform="translate(254.296875 0)"/>
      <use xlink:href="#DejaVuSans-6d" transform="translate(304.296875 0)"/>
      <use xlink:href="#DejaVuSans-61" transform="translate(401.708984 0)"/>
      <use xlink:href="#DejaVuSans-72" transform="translate(462.988281 0)"/>
      <use xlink:href="#DejaVuSans-6b" transform="translate(504.101562 0)"/>
      <use xlink:href="#DejaVuSans-65" transform="translate(558.386719 0)"/>
      <use xlink:href="#DejaVuSans-74" transform="translate(619.910156 0)"/>
      <use xlink:href="#DejaVuSans-5f" transform="translate(659.119141 0)"/>
      <use xlink:href="#DejaVuSans-64" transform="translate(709.119141 0)"/>
      <use xlink:href="#DejaVuSans-61" transform="translate(772.595703 0)"/>
      <use xlink:href="#DejaVuSans-74" transform="translate(833.875 0)"/>
      <use xlink:href="#DejaVuSans-61" transform="translate(873.083984 0)"/>
     </g>
    </g>
   </g>
   <g id="text_4">
    <g clip-path="url(#p2bda1a866a)">
     <!-- parallel_analysis -->
     <g transform="translate(743.422924 516.882823) scale(0.08 -0.08)">
      <defs>
       <path id="DejaVuSans-6e" d="M 3513 2113 
L 3513 0 
L 2938 0 
L 2938 2094 
Q 2938 2591 2744 2837 
Q 2550 3084 2163 3084 
Q 1697 3084 1428 2787 
Q 1159 2491 1159 1978 
L 1159 0 
L 581 0 
L 581 3500 
L 1159 3500 
L 1159 2956 
Q 1366 3272 1645 3428 
Q 1925 3584 2291 3584 
Q 2894 3584 3203 3211 
Q 3513 2838 3513 2113 
z
" transform="scale(0.015625)"/>
       <path id="DejaVuSans-79" d="M 2059 -325 
Q 1816 -950 1584 -1140 
Q 1353 -1331 966 -1331 
L 506 -1331 
L 506 -850 
L 844 -850 
Q 1081 -850 1212 -737 
Q 1344 -625 1503 -206 
L 1606 56 
L 191 3500 
L 800 3500 
L 1894 763 
L 2988 3500 
L 3597 3500 
L 2059 -325 
z
" transform="scale(0.015625)"/>
       <path id="DejaVuSans-69" d="M 603 3500 
L 1178 3500 
L 1178 0 
L 603 0 
L 603 3500 
z
M 603 4863 
L 1178 4863 
L 1178 4134 
L 603 4134 
L 603 4863 
z
" transform="scale(0.015625)"/>
      </defs>
      <use xlink:href="#DejaVuSans-70"/>
      <use xlink:href="#DejaVuSans-61" transform="translate(63.476562 0)"/>
      <use xlink:href="#DejaVuSans-72" transform="translate(124.755859 0)"/>
      <use xlink:href="#DejaVuSans-61" transform="translate(165.869141 0)"/>
      <use xlink:href="#DejaVuSans-6c" transform="translate(227.148438 0)"/>
      <use xlink:href="#DejaVuSans-6c" transform="translate(254.931641 0)"/>
      <use xlink:href="#DejaVuSans-65" transform="translate(282.714844 0)"/>
      <use xlink:href="#DejaVuSans-6c" transform="translate(344.238281 0)"/>
      <use xlink:href="#DejaVuSans-5f" transform="translate(372.021484 0)"/>
      <use xlink:href="#DejaVuSans-61" transform="translate(422.021484 0)"/>
      <use xlink:href="#DejaVuSans-6e" transform="translate(483.300781 0)"/>
      <use xlink:href="#DejaVuSans-61" transform="translate(546.679688 0)"/>
      <use xlink:href="#DejaVuSans-6c" transform="translate(607.958984 0)"/>
      <use xlink:href="#DejaVuSans-79" transform="translate(635.742188 0)"/>
      <use xlink:href="#DejaVuSans-73" transform="translate(694.921875 0)"/>
      <use xlink:href="#DejaVuSans-69" transform="translate(747.021484 0)"/>
      <use xlink:href="#DejaVuSans-73" transform="translate(774.804688 0)"/>
     </g>
    </g>
   </g>
   <g id="text_5">
    <g clip-path="url(#p2bda1a866a)">
     <!-- fundamental_analysis -->
     <g transform="translate(210.663538 294.734062) scale(0.08 -0.08)">
      <defs>
       <path id="DejaVuSans-75" d="M 544 1381 
L 544 3500 
L 1119 3500 
L 1119 1403 
Q 1119 906 1312 657 
Q 1506 409 1894 409 
Q 2359 409 2629 706 
Q 2900 1003 2900 1516 
L 2900 3500 
L 3475 3500 
L 3475 0 
L 2900 0 
L 2900 538 
Q 2691 219 2414 64 
Q 2138 -91 1772 -91 
Q 1169 -91 856 284 
Q 544 659 544 1381 
z
M 1991 3584 
L 1991 3584 
z
" transform="scale(0.015625)"/>
      </defs>
      <use xlink:href="#DejaVuSans-66"/>
      <use xlink:href="#DejaVuSans-75" transform="translate(35.205078 0)"/>
      <use xlink:href="#DejaVuSans-6e" transform="translate(98.583984 0)"/>
      <use xlink:href="#DejaVuSans-64" transform="translate(161.962891 0)"/>
      <use xlink:href="#DejaVuSans-61" transform="translate(225.439453 0)"/>
      <use xlink:href="#DejaVuSans-6d" transform="translate(286.71875 0)"/>
      <use xlink:href="#DejaVuSans-65" transform="translate(384.130859 0)"/>
      <use xlink:href="#DejaVuSans-6e" transform="translate(445.654297 0)"/>
      <use xlink:href="#DejaVuSans-74" transform="translate(509.033203 0)"/>
      <use xlink:href="#DejaVuSans-61" transform="translate(548.242188 0)"/>
      <use xlink:href="#DejaVuSans-6c" transform="translate(609.521484 0)"/>
      <use xlink:href="#DejaVuSans-5f" transform="translate(637.304688 0)"/>
      <use xlink:href="#DejaVuSans-61" transform="translate(687.304688 0)"/>
      <use xlink:href="#DejaVuSans-6e" transform="translate(748.583984 0)"/>
      <use xlink:href="#DejaVuSans-61" transform="translate(811.962891 0)"/>
      <use xlink:href="#DejaVuSans-6c" transform="translate(873.242188 0)"/>
      <use xlink:href="#DejaVuSans-79" transform="translate(901.025391 0)"/>
      <use xlink:href="#DejaVuSans-73" transform="translate(960.205078 0)"/>
      <use xlink:href="#DejaVuSans-69" transform="translate(1012.304688 0)"/>
      <use xlink:href="#DejaVuSans-73" transform="translate(1040.087891 0)"/>
     </g>
    </g>
   </g>
   <g id="text_6">
    <g clip-path="url(#p2bda1a866a)">
     <!-- technical_analysis -->
     <g transform="translate(334.016596 146.634889) scale(0.08 -0.08)">
      <use xlink:href="#DejaVuSans-74"/>
      <use xlink:href="#DejaVuSans-65" transform="translate(39.208984 0)"/>
      <use xlink:href="#DejaVuSans-63" transform="translate(100.732422 0)"/>
      <use xlink:href="#DejaVuSans-68" transform="translate(155.712891 0)"/>
      <use xlink:href="#DejaVuSans-6e" transform="translate(219.091797 0)"/>
      <use xlink:href="#DejaVuSans-69" transform="translate(282.470703 0)"/>
      <use xlink:href="#DejaVuSans-63" transform="translate(310.253906 0)"/>
      <use xlink:href="#DejaVuSans-61" transform="translate(365.234375 0)"/>
      <use xlink:href="#DejaVuSans-6c" transform="translate(426.513672 0)"/>
      <use xlink:href="#DejaVuSans-5f" transform="translate(454.296875 0)"/>
      <use xlink:href="#DejaVuSans-61" transform="translate(504.296875 0)"/>
      <use xlink:href="#DejaVuSans-6e" transform="translate(565.576172 0)"/>
      <use xlink:href="#DejaVuSans-61" transform="translate(628.955078 0)"/>
      <use xlink:href="#DejaVuSans-6c" transform="translate(690.234375 0)"/>
      <use xlink:href="#DejaVuSans-79" transform="translate(718.017578 0)"/>
      <use xlink:href="#DejaVuSans-73" transform="translate(777.197266 0)"/>
      <use xlink:href="#DejaVuSans-69" transform="translate(829.296875 0)"/>
      <use xlink:href="#DejaVuSans-73" transform="translate(857.080078 0)"/>
     </g>
    </g>
   </g>
   <g id="text_7">
    <g clip-path="url(#p2bda1a866a)">
     <!-- synthesize -->
     <g transform="translate(523.126808 220.795726) scale(0.08 -0.08)">
      <defs>
       <path id="DejaVuSans-7a" d="M 353 3500 
L 3084 3500 
L 3084 2975 
L 922 459 
L 3084 459 
L 3084 0 
L 275 0 
L 275 525 
L 2438 3041 
L 353 3041 
L 353 3500 
z
" transform="scale(0.015625)"/>
      </defs>
      <use xlink:href="#DejaVuSans-73"/>
      <use xlink:href="#DejaVuSans-79" transform="translate(52.099609 0)"/>
      <use xlink:href="#DejaVuSans-6e" transform="translate(111.279297 0)"/>
      <use xlink:href="#DejaVuSans-74" transform="translate(174.658203 0)"/>
      <use xlink:href="#DejaVuSans-68" transform="translate(213.867188 0)"/>
      <use xlink:href="#DejaVuSans-65" transform="translate(277.246094 0)"/>
      <use xlink:href="#DejaVuSans-73" transform="translate(338.769531 0)"/>
      <use xlink:href="#DejaVuSans-69" transform="translate(390.869141 0)"/>
      <use xlink:href="#DejaVuSans-7a" transform="translate(418.652344 0)"/>
      <use xlink:href="#DejaVuSans-65" transform="translate(471.142578 0)"/>
     </g>
    </g>
   </g>
   <g id="text_8">
    <g clip-path="url(#p2bda1a866a)">
     <!-- complete -->
     <g transform="translate(409.715625 72.696552) scale(0.08 -0.08)">
      <defs>
       <path id="DejaVuSans-6f" d="M 1959 3097 
Q 1497 3097 1228 2736 
Q 959 2375 959 1747 
Q 959 1119 1226 758 
Q 1494 397 1959 397 
Q 2419 397 2687 759 
Q 2956 1122 2956 1747 
Q 2956 2369 2687 2733 
Q 2419 3097 1959 3097 
z
M 1959 3584 
Q 2709 3584 3137 3096 
Q 3566 2609 3566 1747 
Q 3566 888 3137 398 
Q 2709 -91 1959 -91 
Q 1206 -91 779 398 
Q 353 888 353 1747 
Q 353 2609 779 3096 
Q 1206 3584 1959 3584 
z
" transform="scale(0.015625)"/>
      </defs>
      <use xlink:href="#DejaVuSans-63"/>
      <use xlink:href="#DejaVuSans-6f" transform="translate(54.980469 0)"/>
      <use xlink:href="#DejaVuSans-6d" transform="translate(116.162109 0)"/>
      <use xlink:href="#DejaVuSans-70" transform="translate(213.574219 0)"/>
      <use xlink:href="#DejaVuSans-6c" transform="translate(277.050781 0)"/>
      <use xlink:href="#DejaVuSans-65" transform="translate(304.833984 0)"/>
      <use xlink:href="#DejaVuSans-74" transform="translate(366.357422 0)"/>
      <use xlink:href="#DejaVuSans-65" transform="translate(405.566406 0)"/>
     </g>
    </g>
   </g>
   <g id="text_9">
    <!-- standard -->
    <g transform="translate(392.984375 17.837812) scale(0.14 -0.14)">
     <defs>
      <path id="DejaVuSans-Bold-73" d="M 3272 3391 
L 3272 2541 
Q 2913 2691 2578 2766 
Q 2244 2841 1947 2841 
Q 1628 2841 1473 2761 
Q 1319 2681 1319 2516 
Q 1319 2381 1436 2309 
Q 1553 2238 1856 2203 
L 2053 2175 
Q 2913 2066 3209 1816 
Q 3506 1566 3506 1031 
Q 3506 472 3093 190 
Q 2681 -91 1863 -91 
Q 1516 -91 1145 -36 
Q 775 19 384 128 
L 384 978 
Q 719 816 1070 734 
Q 1422 653 1784 653 
Q 2113 653 2278 743 
Q 2444 834 2444 1013 
Q 2444 1163 2330 1236 
Q 2216 1309 1875 1350 
L 1678 1375 
Q 931 1469 631 1722 
Q 331 1975 331 2491 
Q 331 3047 712 3315 
Q 1094 3584 1881 3584 
Q 2191 3584 2531 3537 
Q 2872 3491 3272 3391 
z
" transform="scale(0.015625)"/>
      <path id="DejaVuSans-Bold-74" d="M 1759 4494 
L 1759 3500 
L 2913 3500 
L 2913 2700 
L 1759 2700 
L 1759 1216 
Q 1759 972 1856 886 
Q 1953 800 2241 800 
L 2816 800 
L 2816 0 
L 1856 0 
Q 1194 0 917 276 
Q 641 553 641 1216 
L 641 2700 
L 84 2700 
L 84 3500 
L 641 3500 
L 641 4494 
L 1759 4494 
z
" transform="scale(0.015625)"/>
      <path id="DejaVuSans-Bold-61" d="M 2106 1575 
Q 1756 1575 1579 1456 
Q 1403 1338 1403 1106 
Q 1403 894 1545 773 
Q 1688 653 1941 653 
Q 2256 653 2472 879 
Q 2688 1106 2688 1447 
L 2688 1575 
L 2106 1575 
z
M 3816 1997 
L 3816 0 
L 2688 0 
L 2688 519 
Q 2463 200 2181 54 
Q 1900 -91 1497 -91 
Q 953 -91 614 226 
Q 275 544 275 1050 
Q 275 1666 698 1953 
Q 1122 2241 2028 2241 
L 2688 2241 
L 2688 2328 
Q 2688 2594 2478 2717 
Q 2269 2841 1825 2841 
Q 1466 2841 1156 2769 
Q 847 2697 581 2553 
L 581 3406 
Q 941 3494 1303 3539 
Q 1666 3584 2028 3584 
Q 2975 3584 3395 3211 
Q 3816 2838 3816 1997 
z
" transform="scale(0.015625)"/>
      <path id="DejaVuSans-Bold-6e" d="M 4056 2131 
L 4056 0 
L 2931 0 
L 2931 347 
L 2931 1631 
Q 2931 2084 2911 2256 
Q 2891 2428 2841 2509 
Q 2775 2619 2662 2680 
Q 2550 2741 2406 2741 
Q 2056 2741 1856 2470 
Q 1656 2200 1656 1722 
L 1656 0 
L 538 0 
L 538 3500 
L 1656 3500 
L 1656 2988 
Q 1909 3294 2193 3439 
Q 2478 3584 2822 3584 
Q 3428 3584 3742 3212 
Q 4056 2841 4056 2131 
z
" transform="scale(0.015625)"/>
      <path id="DejaVuSans-Bold-64" d="M 2919 2988 
L 2919 4863 
L 4044 4863 
L 4044 0 
L 2919 0 
L 2919 506 
Q 2688 197 2409 53 
Q 2131 -91 1766 -91 
Q 1119 -91 703 423 
Q 288 938 288 1747 
Q 288 2556 703 3070 
Q 1119 3584 1766 3584 
Q 2128 3584 2408 3439 
Q 2688 3294 2919 2988 
z
M 2181 722 
Q 2541 722 2730 984 
Q 2919 1247 2919 1747 
Q 2919 2247 2730 2509 
Q 2541 2772 2181 2772 
Q 1825 2772 1636 2509 
Q 1447 2247 1447 1747 
Q 1447 1247 1636 984 
Q 1825 722 2181 722 
z
" transform="scale(0.015625)"/>
      <path id="DejaVuSans-Bold-72" d="M 3138 2547 
Q 2991 2616 2845 2648 
Q 2700 2681 2553 2681 
Q 2122 2681 1889 2404 
Q 1656 2128 1656 1613 
L 1656 0 
L 538 0 
L 538 3500 
L 1656 3500 
L 1656 2925 
Q 1872 3269 2151 3426 
Q 2431 3584 2822 3584 
Q 2878 3584 2943 3579 
Q 3009 3575 3134 3559 
L 3138 2547 
z
" transform="scale(0.015625)"/>
     </defs>
     <use xlink:href="#DejaVuSans-Bold-73"/>
     <use xlink:href="#DejaVuSans-Bold-74" transform="translate(59.521484 0)"/>
     <use xlink:href="#DejaVuSans-Bold-61" transform="translate(107.324219 0)"/>
     <use xlink:href="#DejaVuSans-Bold-6e" transform="translate(174.804688 0)"/>
     <use xlink:href="#DejaVuSans-Bold-64" transform="translate(245.996094 0)"/>
     <use xlink:href="#DejaVuSans-Bold-61" transform="translate(317.578125 0)"/>
     <use xlink:href="#DejaVuSans-Bold-72" transform="translate(385.058594 0)"/>
     <use xlink:href="#DejaVuSans-Bold-64" transform="translate(434.375 0)"/>
    </g>
   </g>
  </g>
 </g>
 <defs>
  <clipPath id="p2bda1a866a">
   <rect x="7.2" y="23.837812" width="842.4" height="537.6"/>
  </clipPath>
 </defs>
</svg>
